<svg width="150" height="34" viewBox="0 0 150 34" fill="none" xmlns="http://www.w3.org/2000/svg">
<path d="M34.6766 19.6036L28.5568 31.0785H2.88916V4.05347H7.0209V30.3896H15.3413C23.2065 30.3896 30.4161 26.1121 34.0568 19.2869L34.6766 19.6036Z" fill="#EDF2F4"/>
<path d="M72.2154 4.05322V14.1678C72.2154 23.5084 64.4849 31.0783 54.946 31.0783C45.4071 31.0783 37.6765 23.5084 37.6765 14.1678V4.05322H41.8083V17.5218C41.8083 24.6284 47.6915 30.3893 54.949 30.3893C62.2065 30.3893 68.0897 24.6284 68.0897 17.5218V4.05322H72.2154Z" fill="#EDF2F4"/>
<path d="M89.4819 17.6654L78.7274 30.4069H87.0298V31.0959H76.1316V30.4069H77.8143L88.973 17.1876L74.8682 4.05029H80.7274L93.931 16.3667L103.727 4.76271H95.4251V4.07375H106.323V4.76271H104.641L94.443 16.8445L109.709 31.0783H103.886L89.4819 17.6654Z" fill="#EDF2F4"/>
<path d="M148.216 19.6033L142.096 31.0783H113.174V4.05322H142.093L145.862 10.8989L145.242 11.2155C143.042 7.22833 138.787 4.74219 134.159 4.74219H117.305V30.3893H128.88C136.745 30.3893 143.955 26.1119 147.596 19.2867L148.216 19.6033ZM128.114 12.8309C128.114 12.8309 128.287 17.9469 130.587 17.9469C128.287 17.9469 128.114 23.0628 128.114 23.0628C128.114 23.0628 127.94 17.9469 125.641 17.9469C127.943 17.9469 128.114 12.8309 128.114 12.8309Z" fill="#EDF2F4"/>
</svg>
