<svg width="150" height="34" viewBox="0 0 150 34" fill="none" xmlns="http://www.w3.org/2000/svg">
<path d="M34.6766 19.6036L28.5569 31.0785H2.88922V4.05347H7.02096V30.3896H15.3413C23.2066 30.3896 30.4162 26.1121 34.0569 19.2869L34.6766 19.6036Z" fill="#2B2D42"/>
<path d="M72.2156 4.05322V14.1678C72.2156 23.5084 64.485 31.0783 54.9461 31.0783C45.4072 31.0783 37.6766 23.5084 37.6766 14.1678V4.05322H41.8084V17.5218C41.8084 24.6284 47.6916 30.3893 54.9491 30.3893C62.2066 30.3893 68.0898 24.6284 68.0898 17.5218V4.05322H72.2156Z" fill="#2B2D42"/>
<path d="M89.482 17.6654L78.7275 30.4069H87.0299V31.0959H76.1317V30.4069H77.8144L88.9731 17.1876L74.8683 4.05029H80.7275L93.9311 16.3667L103.728 4.76271H95.4251V4.07375H106.323V4.76271H104.641L94.4431 16.8445L109.71 31.0783H103.886L89.482 17.6654Z" fill="#2B2D42"/>
<path d="M148.216 19.6033L142.096 31.0783H113.174V4.05322H142.093L145.862 10.8989L145.243 11.2155C143.042 7.22833 138.787 4.74219 134.159 4.74219H117.305V30.3893H128.88C136.745 30.3893 143.955 26.1119 147.596 19.2867L148.216 19.6033ZM128.114 12.8309C128.114 12.8309 128.287 17.9469 130.587 17.9469C128.287 17.9469 128.114 23.0628 128.114 23.0628C128.114 23.0628 127.94 17.9469 125.641 17.9469C127.943 17.9469 128.114 12.8309 128.114 12.8309Z" fill="#2B2D42"/>
</svg>
